<?xml version="1.0" encoding="utf-8"?>
<!-- Generator: Adobe Illustrator 25.4.1, SVG Export Plug-In . SVG Version: 6.00 Build 0)  -->
<svg version="1.1" id="Calque_1" xmlns="http://www.w3.org/2000/svg" xmlns:xlink="http://www.w3.org/1999/xlink" x="0px" y="0px"
	 viewBox="0 0 1278.7 416.3" style="enable-background:new 0 0 1278.7 416.3;" xml:space="preserve">
<style type="text/css">
	.st0{fill:#002448;}
</style>
<path class="st0" d="M257.2,250.5h-19.6c-4.4,0-7.4-4.5-5.6-8.5l75.4-175.5c1-2.2,3.2-3.7,5.6-3.7h28.6c2.5,0,4.7,1.5,5.6,3.7
	L422,242c1.7,4-1.2,8.5-5.6,8.5h-20.5c-2.5,0-4.7-1.5-5.6-3.7l-60.9-143.2c-1.1-2.6-4.8-2.6-5.9,0l-60.6,143.2
	C261.9,249,259.7,250.5,257.2,250.5L257.2,250.5z M979,209.7l60.6-143.2c1-2.3,3.2-3.7,5.7-3.7h19.6c4.4,0,7.4,4.5,5.6,8.5
	l-75.4,175.4c-1,2.2-3.2,3.7-5.6,3.7h-28.6c-2.5,0-4.7-1.5-5.6-3.7L880.4,71.3c-1.7-4,1.2-8.5,5.6-8.5h20.5c2.5,0,4.7,1.5,5.6,3.7
	L973,209.7C974.2,212.3,977.9,212.3,979,209.7z M826,62.8h19.6c4.4,0,7.4,4.5,5.6,8.5l-75.4,175.4c-1,2.2-3.2,3.7-5.6,3.7h-19.6
	c-4.4,0-7.4-4.5-5.6-8.5l75.4-175.4C821.4,64.3,823.6,62.8,826,62.8z"/>
<g>
	<path class="st0" d="M213.6,95.5L203,108.8c-2.3,2.8-6.4,3-9,0.5c-13.2-11.9-30.6-19.1-47.5-19.1c-37.5,0-67,29-67,66
		s29.5,66.2,67,66.2c16.9,0,34.1-6.9,47.8-18.2c2.6-2.1,6.3-2,8.6,0.5l10.6,11.8c2.2,2.5,2.1,6.5-0.4,8.7
		c-18.7,16.4-43.7,26.7-68.2,26.7c-55,0-97.6-41.6-97.6-95.4C47.2,103,90.4,62,145.9,62c24.6,0,49.1,9.4,67.1,25
		C215.4,89.2,215.6,92.9,213.6,95.5z M521.2,62.8c47.2,0,74.3,23.3,74.3,64.1c0,42.4-27.1,67-74.3,67h-37c-3.4,0-6.1,2.7-6.1,6.1
		v44.3c0,3.4-2.7,6.1-6.1,6.1h-19.4c-3.4,0-6.1-2.7-6.1-6.1V68.9c0-3.4,2.7-6.1,6.1-6.1H521.2z M478,159.4c0,3.4,2.7,6.1,6.1,6.1
		h35.7c29,0,45.3-12.3,45.3-37.8c0-24.7-16.3-36.5-45.3-36.5h-35.7c-3.4,0-6.1,2.7-6.1,6.1L478,159.4L478,159.4z M697.7,97.4v147
		c0,3.4-2.7,6.1-6.1,6.1h-19.4c-3.4,0-6.1-2.7-6.1-6.1v-147c0-3.4-2.7-6.1-6.1-6.1h-47c-3.4,0-6.1-2.7-6.1-6.1V68.9
		c0-3.4,2.7-6.1,6.1-6.1h138.2c3.4,0,6.1,2.7,6.1,6.1v16.2c0,3.4-2.7,6.1-6.1,6.1h-47.3C700.4,91.2,697.7,94,697.7,97.4z
		 M1124.4,97.4v38.4c0,3.4,2.7,6.1,6.1,6.1h79.4c3.4,0,6.1,2.7,6.1,6.1v16.2c0,3.4-2.7,6.1-6.1,6.1h-79.4c-3.4,0-6.1,2.7-6.1,6.1
		v39.5c0,3.4,2.7,6.1,6.1,6.1h93.4c3.4,0,6.1,2.7,6.1,6.1v16.2c0,3.4-2.7,6.1-6.1,6.1h-125c-3.4,0-6.1-2.7-6.1-6.1V68.9
		c0-3.4,2.7-6.1,6.1-6.1h121.8c3.4,0,6.1,2.7,6.1,6.1v16.2c0,3.4-2.7,6.1-6.1,6.1h-90.2C1127.1,91.2,1124.4,94,1124.4,97.4
		L1124.4,97.4z"/>
</g>
<g>
	<path class="st0" d="M58.9,301.3h21.7c16.1,0,27.1,9.9,27.1,24.8c0,14.9-11,24.8-27.1,24.8H58.9V301.3L58.9,301.3z M80.2,343
		c11.1,0,18.2-6.7,18.2-17s-7.1-17-18.2-17h-12v34H80.2z M154.4,343.1v7.7h-37.2v-49.6h36.2v7.7h-27v12.9h23.9v7.6h-23.8v13.7
		L154.4,343.1L154.4,343.1z M137.1,297.2h-7.6l9.6-9.7h10.4L137.1,297.2z M216.3,301.3l-21.6,49.6h-9.1l-21.7-49.6h10l16.5,38.2
		l16.6-38.2H216.3z M264,343.1v7.7h-37.2v-49.6H263v7.7h-27v12.9h23.9v7.6H236v13.7L264,343.1L264,343.1z M279.6,301.3h9.2V343h25.9
		v7.8h-35.1V301.3L279.6,301.3z M322.9,326c0-14.7,11.3-25.5,26.7-25.5c15.4,0,26.7,10.8,26.7,25.5s-11.3,25.5-26.7,25.5
		S322.9,340.7,322.9,326z M367,326c0-10.1-7.4-17.4-17.4-17.4s-17.4,7.3-17.4,17.4s7.4,17.4,17.4,17.4
		C359.6,343.5,367,336.2,367,326L367,326z M431.2,318.9c0,10.9-8.1,17.6-21.1,17.6h-11.2v14.3h-9.2v-49.6h20.4
		C423.2,301.3,431.2,307.9,431.2,318.9L431.2,318.9z M422,318.9c0-6.2-4.2-9.8-12.2-9.8H399v19.7h10.8
		C417.8,328.7,422,325.1,422,318.9z M485.1,318.9c0,10.9-8.1,17.6-21.1,17.6h-11.2v14.3h-9.2v-49.6H464
		C477,301.3,485.1,307.9,485.1,318.9L485.1,318.9z M475.8,318.9c0-6.2-4.2-9.8-12.2-9.8h-10.8v19.7h10.8
		C471.6,328.7,475.8,325.1,475.8,318.9z M534,343.1v7.7h-37.2v-49.6H533v7.7h-27v12.9h23.9v7.6H506v13.7L534,343.1L534,343.1z
		 M580.9,350.8l-10.1-14.5c-0.6,0.1-1.3,0.1-1.9,0.1h-11.2v14.5h-9.2v-49.6h20.4c13,0,21.1,6.7,21.1,17.6c0,7.5-3.8,13-10.5,15.6
		l11.4,16.3H580.9z M568.5,309h-10.8v19.8h10.8c8.1,0,12.2-3.7,12.2-9.9S576.5,309,568.5,309z M678.6,339.4h-24.8l-4.9,11.5h-9.5
		l22.3-49.6h9.1l22.4,49.6h-9.6L678.6,339.4z M675.6,332.1l-9.3-21.7l-9.3,21.7H675.6z M742,301.3l-21.6,49.6h-9.1l-21.7-49.6h10
		l16.5,38.2l16.6-38.2H742z M788.7,343.1v7.7h-37.2v-49.6h36.2v7.7h-27v12.9h23.9v7.6h-23.9v13.7L788.7,343.1L788.7,343.1z
		 M798.9,326c0-14.8,11.3-25.5,26.5-25.5c8.1,0,15,2.9,19.6,8.3l-5.9,5.6c-3.6-3.9-8.1-5.8-13.2-5.8c-10.3,0-17.7,7.2-17.7,17.4
		s7.4,17.4,17.7,17.4c5.2,0,9.6-1.9,13.2-5.9l5.9,5.7c-4.6,5.4-11.5,8.3-19.7,8.3C810.2,351.5,798.9,340.8,798.9,326L798.9,326z
		 M889.6,301.3h21.7c16.1,0,27,9.9,27,24.8c0,14.9-11,24.8-27,24.8h-21.7V301.3L889.6,301.3z M910.8,343c11,0,18.2-6.7,18.2-17
		s-7.2-17-18.2-17h-12v34H910.8z M947.5,329.2v-28h9.2v27.6c0,10.2,4.6,14.6,12.6,14.6s12.5-4.4,12.5-14.6v-27.6h9.1v28
		c0,14.4-8.2,22.3-21.7,22.3C955.6,351.5,947.5,343.7,947.5,329.2L947.5,329.2z M1038.6,345.6l3.2-7.2c4,3.2,10.3,5.5,16.4,5.5
		c7.7,0,11-2.8,11-6.5c0-10.7-29.4-3.7-29.4-22.1c0-8,6.4-14.8,20-14.8c5.9,0,12.2,1.6,16.5,4.4l-2.9,7.1c-4.5-2.6-9.4-3.9-13.7-3.9
		c-7.6,0-10.8,3-10.8,6.7c0,10.6,29.4,3.7,29.4,21.9c0,7.9-6.4,14.7-20,14.7C1050.4,351.5,1042.7,349.1,1038.6,345.6L1038.6,345.6z
		 M1126.5,343.1v7.7h-37.2v-49.6h36.2v7.7h-27v12.9h23.9v7.6h-23.9v13.7L1126.5,343.1L1126.5,343.1z M1180.6,301.3v49.6h-7.6
		l-27.3-33.6v33.6h-9.1v-49.6h7.6l27.3,33.6v-33.6H1180.6L1180.6,301.3z M1191.8,345.6l3.2-7.2c4,3.2,10.3,5.5,16.4,5.5
		c7.7,0,11-2.8,11-6.5c0-10.7-29.4-3.7-29.4-22.1c0-8,6.4-14.8,20-14.8c5.9,0,12.2,1.6,16.5,4.4l-2.9,7.1c-4.5-2.6-9.3-3.9-13.7-3.9
		c-7.6,0-10.8,3-10.8,6.7c0,10.6,29.4,3.7,29.4,21.9c0,7.9-6.4,14.7-20,14.7C1203.6,351.5,1195.9,349.1,1191.8,345.6z"/>
</g>
</svg>
